<?xml version="1.0" standalone="no"?>
<!DOCTYPE svg PUBLIC "-//W3C//DTD SVG 20010904//EN"
 "http://www.w3.org/TR/2001/REC-SVG-20010904/DTD/svg10.dtd">
<svg version="1.0" xmlns="http://www.w3.org/2000/svg"
 width="700.000000pt" height="700.000000pt" viewBox="0 0 700.000000 700.000000"
 preserveAspectRatio="xMidYMid meet">
<metadata>
Created by potrace 1.14, written by Peter Selinger 2001-2017
</metadata>
<g transform="translate(0.000000,700.000000) scale(0.100000,-0.100000)"
fill="#000000" stroke="none">
<path d="M2536 6018 c-50 -59 -99 -118 -110 -130 -12 -13 -41 -48 -66 -78 -25
-30 -47 -57 -50 -60 -3 -3 -27 -32 -55 -65 -27 -33 -52 -62 -55 -65 -3 -3 -28
-33 -55 -67 l-50 -63 -567 0 c-313 0 -571 -1 -575 -1 -32 -6 -117 -41 -150
-62 -87 -55 -167 -155 -200 -249 -17 -51 -18 -140 -18 -1998 0 -1840 1 -1948
18 -1996 52 -149 195 -276 342 -301 28 -5 1170 -9 2575 -8 2086 1 2532 3 2565
14 145 49 258 155 308 289 l21 57 1 1925 c1 1059 -2 1945 -7 1970 -26 140
-179 306 -320 348 -13 3 -285 9 -605 12 -320 3 -583 7 -585 10 -88 107 -204
246 -208 250 -5 4 -51 59 -260 309 l-55 66 -875 0 -875 0 -89 -107z m1216
-1621 c116 -24 203 -53 308 -104 52 -25 97 -49 100 -53 3 -3 12 -9 21 -12 28
-11 163 -125 229 -194 174 -183 280 -405 318 -664 14 -92 7 -362 -12 -450 -91
-434 -392 -776 -813 -921 -32 -11 -60 -19 -63 -19 -3 0 -27 -4 -55 -10 -120
-24 -169 -28 -315 -26 -319 6 -568 98 -788 291 -210 185 -340 407 -397 680
-35 167 -27 438 19 613 89 338 343 637 666 785 94 42 261 86 385 100 73 8 327
-2 397 -16z"/>
</g>
</svg>
